<svg width="366" height="327" viewBox="0 0 366 327" fill="none" xmlns="http://www.w3.org/2000/svg">
<path d="M121.278 293.095C87.9607 312.456 10.4597 319.37 1.33367 257.9C-10.5243 178.03 60.8307 178.334 52.0477 114.639C43.2647 50.9435 107.642 -28.2775 169.459 25.9495C231.276 80.1765 239.898 71.7145 277.698 60.1165C315.498 48.5185 366.704 99.8475 333.392 152.661C300.08 205.475 353.345 289.441 267.441 318.573C166.743 352.722 185.947 255.516 121.278 293.095Z" fill="#F5F8FF"/>
<path d="M362.266 188.583L359.105 188.013C357.527 187.729 356.277 186.464 356.096 184.871C355.856 182.758 355.386 180.699 354.711 178.723C354.183 177.181 354.78 175.478 356.118 174.548L359.004 172.544C360.682 171.378 361.098 169.073 359.932 167.395L357.426 163.787C356.26 162.109 353.955 161.693 352.277 162.859L349.223 164.98C347.892 165.904 346.098 165.91 344.815 164.919C343.065 163.569 341.15 162.406 339.095 161.469C337.584 160.78 336.769 159.117 337.064 157.482L337.567 154.69C337.929 152.679 336.593 150.755 334.582 150.393L330.259 149.614C328.248 149.251 326.324 150.587 325.962 152.598L325.314 156.195C325.031 157.767 323.766 158.944 322.19 159.201C320.395 159.494 318.645 159.953 316.958 160.563C315.472 161.1 313.812 160.703 312.795 159.495L309.632 155.737C308.316 154.174 305.983 153.973 304.419 155.289L301.059 158.118C299.496 159.434 299.295 161.768 300.611 163.331L303.071 166.254C304.162 167.55 304.245 169.43 303.24 170.794C302.294 172.077 301.448 173.444 300.714 174.886C299.987 176.316 298.375 177.066 296.797 176.782L293.635 176.212C291.624 175.849 289.7 177.186 289.338 179.196L288.559 183.519C288.197 185.53 289.533 187.454 291.544 187.816L294.685 188.382C296.273 188.668 297.533 189.938 297.717 191.541C297.856 192.75 298.071 193.941 298.355 195.11C298.762 196.779 297.931 198.501 296.391 199.26L294.061 200.408C292.228 201.311 291.475 203.529 292.378 205.362L294.32 209.302C295.223 211.135 297.441 211.888 299.274 210.985L302.873 209.212C304.268 208.524 305.922 208.807 307.067 209.859C308.67 211.33 310.443 212.631 312.363 213.726C313.749 214.516 314.525 216.059 314.242 217.629L313.593 221.23C313.231 223.241 314.567 225.165 316.577 225.527L320.9 226.306C322.911 226.668 324.835 225.332 325.197 223.321L325.7 220.528C325.995 218.893 327.34 217.619 328.997 217.501C331.238 217.341 333.427 216.924 335.527 216.276C337.07 215.8 338.743 216.429 339.664 217.756L341.822 220.862C342.987 222.54 345.293 222.956 346.971 221.79L350.579 219.284C352.257 218.118 352.673 215.813 351.507 214.135L349.485 211.223C348.555 209.883 348.591 208.076 349.627 206.816C350.961 205.192 352.129 203.416 353.098 201.508C353.824 200.078 355.438 199.331 357.016 199.616L360.175 200.185C362.186 200.547 364.11 199.211 364.472 197.2L365.251 192.877C365.613 190.87 364.276 188.946 362.266 188.583ZM342.731 190.814C341.155 199.555 332.792 205.364 324.052 203.788C315.311 202.212 309.503 193.849 311.078 185.108C312.654 176.367 321.017 170.559 329.757 172.134C338.498 173.71 344.306 182.073 342.731 190.814Z" fill="#E1ECFA"/>
<path d="M113.77 59.7131L109.904 59.7081C107.974 59.7051 106.225 58.4721 105.673 56.6241C104.94 54.1721 103.948 51.8311 102.728 49.6341C101.776 47.9191 102.122 45.7741 103.511 44.3891L106.506 41.4021C108.247 39.6651 108.251 36.8461 106.514 35.1051L102.781 31.3621C101.044 29.6211 98.2251 29.6171 96.4841 31.3541L93.3151 34.5151C91.9341 35.8921 89.8102 36.2781 88.0802 35.3771C85.7212 34.1481 83.2062 33.1761 80.5722 32.5021C78.6362 32.0061 77.3181 30.2081 77.3211 28.2091L77.3262 24.7941C77.3292 22.3351 75.3381 20.3391 72.8791 20.3351L67.5921 20.3281C65.1331 20.3251 63.1371 22.3151 63.1331 24.7751L63.1271 29.1741C63.1241 31.0961 61.8751 32.7591 60.0621 33.3981C57.9971 34.1261 56.0211 35.0401 54.1521 36.1211C52.5061 37.0721 50.4541 36.9541 48.9931 35.7381L44.4491 31.9561C42.5591 30.3831 39.7512 30.6401 38.1782 32.5301L34.7961 36.5931C33.2231 38.4831 33.4801 41.2911 35.3701 42.8641L38.9051 45.8061C40.4721 47.1111 40.9692 49.3211 40.0672 51.1491C39.2182 52.8691 38.5052 54.6681 37.9422 56.5321C37.3842 58.3801 35.6331 59.6111 33.7021 59.6081L29.8351 59.6031C27.3761 59.6001 25.3791 61.5911 25.3761 64.0501L25.3691 69.3371C25.3661 71.7961 27.3572 73.7921 29.8162 73.7961L33.6571 73.8011C35.5991 73.8041 37.3611 75.0421 37.9191 76.9011C38.3401 78.3041 38.8471 79.6701 39.4311 80.9941C40.2671 82.8851 39.6472 85.1011 37.9832 86.3271L35.4661 88.1811C33.4861 89.6391 33.0631 92.4271 34.5221 94.4071L37.6581 98.6631C39.1161 100.643 41.9041 101.066 43.8841 99.6071L47.7721 96.7431C49.2791 95.6321 51.2981 95.6171 52.8791 96.6211C55.0901 98.0251 57.4661 99.1901 59.9741 100.08C61.7841 100.722 63.0301 102.386 63.0271 104.306L63.0211 108.71C63.0181 111.169 65.0082 113.166 67.4682 113.169L72.7552 113.176C75.2142 113.179 77.2112 111.188 77.2142 108.729L77.2191 105.314C77.2221 103.314 78.5461 101.52 80.4841 101.029C83.1061 100.365 85.6101 99.4071 87.9611 98.1931C89.6881 97.3021 91.8041 97.6931 93.1761 99.0691L96.3911 102.292C98.1271 104.033 100.947 104.037 102.688 102.3L106.431 98.5671C108.172 96.8301 108.176 94.0111 106.439 92.2701L103.426 89.2491C102.04 87.8591 101.7 85.7101 102.66 83.9971C103.896 81.7911 104.903 79.4391 105.648 76.9721C106.206 75.1241 107.959 73.8971 109.89 73.8991L113.754 73.9041C116.213 73.9071 118.209 71.9161 118.213 69.4571L118.22 64.1701C118.22 61.7131 116.229 59.7161 113.77 59.7131ZM91.0981 66.4961C91.0841 77.1861 82.4062 85.8411 71.7162 85.8261C61.0262 85.8121 52.3722 77.1341 52.3862 66.4441C52.4002 55.7541 61.0782 47.1001 71.7682 47.1141C82.4582 47.1281 91.1121 55.8061 91.0981 66.4961Z" fill="#E1ECFA"/>
<path d="M178.834 19.0203L176.689 19.2864C175.618 19.4194 174.562 18.8564 174.127 17.8694C173.55 16.5594 172.836 15.3304 172.007 14.1964C171.36 13.3114 171.402 12.0974 172.076 11.2324L173.53 9.36735C174.375 8.28235 174.181 6.71835 173.096 5.87335L170.764 4.05635C169.679 3.21135 168.115 3.40535 167.27 4.49035L165.732 6.46435C165.062 7.32435 163.91 7.68635 162.888 7.30735C161.493 6.78935 160.031 6.42535 158.522 6.23435C157.413 6.09435 156.557 5.18836 156.419 4.07836L156.184 2.18335C156.015 0.818352 154.771 -0.15065 153.407 0.0193505L150.473 0.383357C149.108 0.552357 148.139 1.79635 148.309 3.16035L148.612 5.60135C148.744 6.66735 148.167 7.67735 147.206 8.15835C146.111 8.70535 145.078 9.35035 144.116 10.0804C143.269 10.7224 142.123 10.7994 141.227 10.2264L138.443 8.44435C137.285 7.70335 135.745 8.04135 135.004 9.19935L133.41 11.6894C132.669 12.8474 133.007 14.3874 134.165 15.1284L136.331 16.5144C137.291 17.1294 137.721 18.3204 137.348 19.3984C136.997 20.4114 136.726 21.4593 136.544 22.5333C136.363 23.5974 135.477 24.4023 134.406 24.5353L132.26 24.8014C130.895 24.9704 129.926 26.2144 130.096 27.5784L130.46 30.5124C130.629 31.8774 131.873 32.8464 133.237 32.6764L135.368 32.4124C136.446 32.2784 137.509 32.8434 137.949 33.8364C138.28 34.5854 138.656 35.3084 139.073 36.0014C139.668 36.9924 139.479 38.2654 138.641 39.0614L137.373 40.2654C136.376 41.2124 136.335 42.7884 137.282 43.7854L139.318 45.9283C140.265 46.9253 141.841 46.9664 142.838 46.0194L144.796 44.1604C145.555 43.4394 146.674 43.2904 147.621 43.7374C148.945 44.3624 150.345 44.8433 151.798 45.1633C152.847 45.3933 153.654 46.2304 153.786 47.2954L154.089 49.7394C154.258 51.1044 155.502 52.0734 156.866 51.9034L159.8 51.5394C161.165 51.3704 162.134 50.1263 161.964 48.7623L161.729 46.8674C161.591 45.7584 162.201 44.6704 163.242 44.2634C164.65 43.7124 165.973 43.0064 167.193 42.1694C168.089 41.5544 169.29 41.6243 170.148 42.2923L172.156 43.8573C173.241 44.7023 174.805 44.5084 175.65 43.4234L177.467 41.0914C178.312 40.0064 178.118 38.4424 177.033 37.5974L175.151 36.1304C174.285 35.4554 173.947 34.2874 174.36 33.2704C174.892 31.9604 175.287 30.5854 175.529 29.1654C175.71 28.1014 176.597 27.2984 177.668 27.1654L179.812 26.8994C181.177 26.7304 182.146 25.4864 181.976 24.1224L181.612 21.1884C181.442 19.8204 180.198 18.8513 178.834 19.0203ZM166.727 24.3614C167.463 30.2934 163.251 35.6994 157.319 36.4354C151.387 37.1714 145.982 32.9594 145.246 27.0274C144.51 21.0954 148.722 15.6904 154.654 14.9544C160.586 14.2174 165.991 18.4294 166.727 24.3614Z" fill="#E1ECFA"/>
<path d="M216.821 294.912C217.275 292.469 216.86 290.067 216.267 288.166C215.656 286.205 213.284 285.395 211.592 286.558C209.175 288.218 206.124 289.771 205.887 287.232C205.492 282.984 214.343 284.153 213.971 277.926C213.784 274.79 212.383 271.692 211.376 269.836C210.782 268.741 209.599 268.099 208.359 268.222C206.112 268.445 202.416 269.055 199.798 270.719C194.532 274.064 199.117 281.575 195.418 283.701C193.326 284.903 193.002 281.022 193.115 277.421C193.193 274.923 190.425 273.343 188.335 274.714C187.583 275.207 186.775 275.783 185.93 276.45C181.603 279.867 188.448 288.149 185.887 291.213C184.388 293.006 182.532 288.941 181.25 285.26C180.35 282.676 176.771 282.382 175.55 284.83C174.965 286.003 174.492 287.429 174.286 289.138C173.5 295.646 181.236 297.543 177.442 299.063C176.336 299.506 175.285 299.123 174.352 298.359C172.382 296.744 169.423 298.279 169.383 300.826C169.246 309.405 171.053 321.624 177.918 325.98C178.869 326.584 190.06 325.51 190.951 325.692C198.82 327.295 204.777 323.603 208.591 319.768C210.485 317.864 209.244 314.621 206.563 314.472C203.667 314.311 200.771 313.661 200.318 311.756C199.374 307.78 208.477 313.679 213.343 309.286C214.93 307.853 215.923 306.336 216.54 304.942C217.55 302.661 215.6 300.196 213.142 300.626C209.15 301.324 203.941 301.803 204.584 299.389C205.612 295.527 215.815 300.333 216.821 294.912Z" fill="#E1ECFA"/>
<path d="M183.63 318.945C183.63 318.945 190.216 298.789 207.59 273.76Z" fill="#E1ECFA"/>
<path d="M156.401 284.561C154.913 283.82 153.316 283.537 151.889 283.477C149.766 283.387 148.153 285.408 148.767 287.442C149.416 289.589 149.698 291.866 147.809 291.511C144.341 290.86 147.282 284.087 142.245 282.968C139.904 282.448 137.353 282.757 135.634 283.106C134.374 283.362 133.394 284.356 133.184 285.625C132.876 287.487 132.616 290.311 133.294 292.601C134.758 297.549 141.773 295.609 142.622 299.034C143.049 300.756 140.597 300.453 138.053 299.727C135.603 299.027 133.382 301.361 134.247 303.758C134.384 304.136 134.534 304.528 134.7 304.932C136.435 309.149 144.575 305.587 146.43 308.32C147.365 309.698 144.783 310.298 141.992 310.556C139.026 310.829 138.047 314.72 140.586 316.277C141.054 316.564 141.572 316.833 142.144 317.074C147.141 319.177 150.407 313.457 150.754 316.819C150.84 317.651 150.462 318.315 149.846 318.844C148.046 320.389 148.752 323.339 151.007 324.074C156.93 326.004 165.141 327.523 171.166 325.976C174.653 325.08 177.036 322.882 178.237 321.365C182.505 315.97 178.446 305.094 174.749 298.144C173.537 295.865 170.19 295.953 169.177 298.327C168.415 300.113 167.381 301.572 166.045 301.512C162.669 301.36 169.428 295.46 167.04 290.593C166.679 289.858 166.291 289.22 165.892 288.666C164.323 286.489 160.891 287.328 160.374 289.962C159.773 293.026 158.749 296.247 157.18 295.31C154.343 293.615 160.483 286.593 156.401 284.561Z" fill="#E1ECFA"/>
<path d="M167.973 316.416C167.973 316.416 153.44 306.6 137.483 287.097Z" fill="#E1ECFA"/>
<path d="M340.998 298.931C341.329 297.149 341.123 295.392 340.742 293.901C340.209 291.818 337.804 290.904 336 292.074C334.021 293.358 331.776 294.335 331.589 292.321C331.249 288.665 338.866 289.671 338.546 284.312C338.395 281.782 337.326 279.28 336.479 277.661C335.883 276.521 334.664 275.852 333.385 275.995C331.434 276.213 328.478 276.756 326.349 278.109C321.817 280.988 325.763 287.452 322.579 289.281C320.93 290.228 320.557 287.505 320.581 284.659C320.602 282.111 317.739 280.637 315.659 282.109C315.257 282.394 314.84 282.704 314.413 283.041C310.689 285.982 316.58 293.109 314.376 295.746C313.217 297.133 311.809 294.448 310.735 291.59C309.723 288.897 305.83 288.892 304.915 291.62C304.68 292.32 304.497 293.099 304.393 293.961C303.717 299.562 310.374 301.194 307.109 302.502C306.323 302.817 305.57 302.648 304.88 302.209C302.841 300.913 300.164 302.442 300.168 304.858C300.179 312.177 301.832 322.057 307.519 325.666C308.338 326.186 317.968 325.262 318.735 325.418C325.02 326.698 329.887 324.053 333.179 321.029C335.143 319.224 333.952 315.961 331.297 315.696C329.123 315.479 327.139 314.873 326.796 313.426C325.983 310.004 333.818 315.081 338.005 311.3C338.969 310.43 339.678 309.524 340.198 308.645C341.536 306.384 339.664 303.565 337.069 303.975C333.772 304.495 329.954 304.71 330.467 302.784C331.352 299.46 340.132 303.596 340.998 298.931Z" fill="#E1ECFA"/>
<path d="M312.434 319.613C312.434 319.613 318.102 302.267 333.054 280.728Z" fill="#E1ECFA"/>
<path d="M316.413 273.254H31.2374C23.8484 273.254 17.8574 267.264 17.8574 259.874V97.4581C17.8574 90.0681 23.8474 84.0781 31.2374 84.0781H316.413C323.802 84.0781 329.793 90.0681 329.793 97.4581V259.874C329.793 267.264 323.803 273.254 316.413 273.254Z" fill="#315782"/>
<path d="M310.441 261.792H37.2107C32.9357 261.792 29.4707 258.327 29.4707 254.052V103.281C29.4707 99.007 32.9357 95.541 37.2107 95.541H310.44C314.715 95.541 318.18 99.006 318.18 103.281V254.052C318.18 258.326 314.715 261.792 310.441 261.792Z" fill="white"/>
<path d="M40.3936 130.348H307.978" stroke="#E1ECFA" stroke-miterlimit="10" stroke-linecap="round"/>
<path d="M173.737 102.413V253.233" stroke="#E1ECFA" stroke-miterlimit="10" stroke-linecap="round"/>
<path d="M243.907 102.413V253.233" stroke="#E1ECFA" stroke-miterlimit="10" stroke-linecap="round"/>
<path d="M88.3591 118.056H47.2561C45.6631 118.056 44.3711 116.764 44.3711 115.171V113.231C44.3711 111.637 45.6631 110.346 47.2561 110.346H88.3591C89.9521 110.346 91.2441 111.638 91.2441 113.231V115.171C91.2441 116.764 89.9531 118.056 88.3591 118.056Z" fill="#E1ECFA"/>
<path d="M158.004 118.056H116.901C115.308 118.056 114.016 116.764 114.016 115.171V113.231C114.016 111.637 115.308 110.346 116.901 110.346H158.004C159.597 110.346 160.889 111.638 160.889 113.231V115.171C160.889 116.764 159.598 118.056 158.004 118.056Z" fill="#E1ECFA"/>
<path d="M229.315 118.056H188.212C186.619 118.056 185.327 116.764 185.327 115.171V113.231C185.327 111.637 186.619 110.346 188.212 110.346H229.315C230.908 110.346 232.2 111.638 232.2 113.231V115.171C232.2 116.764 230.908 118.056 229.315 118.056Z" fill="#E1ECFA"/>
<path d="M298.584 118.056H257.481C255.888 118.056 254.596 116.764 254.596 115.171V113.231C254.596 111.637 255.888 110.346 257.481 110.346H298.584C300.178 110.346 301.469 111.638 301.469 113.231V115.171C301.47 116.764 300.178 118.056 298.584 118.056Z" fill="#E1ECFA"/>
<path d="M83.1176 170.025H60.4666C59.1596 170.025 58.1006 168.966 58.1006 167.659V145.008C58.1006 143.701 59.1596 142.642 60.4666 142.642H83.1176C84.4246 142.642 85.4836 143.701 85.4836 145.008V167.659C85.4836 168.966 84.4246 170.025 83.1176 170.025Z" fill="#F0C66C"/>
<path d="M76.0514 210.363H52.2234C50.9164 210.363 49.8574 209.304 49.8574 207.997V184.169C49.8574 182.862 50.9164 181.803 52.2234 181.803H76.0514C77.3584 181.803 78.4174 182.862 78.4174 184.169V207.997C78.4174 209.303 77.3574 210.363 76.0514 210.363Z" fill="#F0C66C"/>
<path d="M82.4578 246.596L60.3148 249.676C59.0208 249.856 57.8258 248.953 57.6458 247.659L54.5658 225.516C54.3858 224.222 55.2888 223.027 56.5828 222.847L78.7258 219.767C80.0198 219.587 81.2148 220.49 81.3948 221.784L84.4748 243.927C84.6548 245.221 83.7518 246.416 82.4578 246.596Z" fill="#E69724"/>
<path d="M150.535 247.423L122.389 245.25C121.086 245.149 120.112 244.012 120.212 242.709L122.385 214.563C122.486 213.26 123.623 212.286 124.926 212.386L153.072 214.559C154.375 214.66 155.349 215.797 155.249 217.1L153.076 245.246C152.975 246.549 151.837 247.524 150.535 247.423Z" fill="#F0C66C"/>
<path d="M201.355 169.569L231.122 171.867C232.425 171.967 233.399 173.105 233.299 174.408L231.001 204.176C230.9 205.479 229.763 206.453 228.46 206.353L198.693 204.055C197.39 203.954 196.416 202.817 196.516 201.514L198.814 171.746C198.914 170.443 200.052 169.469 201.355 169.569Z" fill="#E69724"/>
<path d="M225.639 240.562L201.818 243.876C200.524 244.056 199.329 243.153 199.149 241.859L196.35 221.739C196.17 220.445 197.073 219.25 198.367 219.07L222.188 215.756C223.482 215.576 224.677 216.479 224.857 217.773L227.656 237.893C227.837 239.187 226.934 240.382 225.639 240.562Z" fill="#F0C66C"/>
<path d="M148.007 207.077H126.895C125.588 207.077 124.529 206.018 124.529 204.711V183.599C124.529 182.292 125.588 181.233 126.895 181.233H148.007C149.314 181.233 150.373 182.292 150.373 183.599V204.711C150.373 206.018 149.314 207.077 148.007 207.077Z" fill="#F0C66C"/>
<path d="M275.174 165.868H256.962C255.655 165.868 254.596 164.809 254.596 163.502V145.29C254.596 143.983 255.655 142.924 256.962 142.924H275.174C276.481 142.924 277.54 143.983 277.54 145.29V163.502C277.54 164.809 276.481 165.868 275.174 165.868Z" fill="#F0C66C"/>
<path d="M309.781 171.337L288.592 174.285C287.298 174.465 286.103 173.562 285.923 172.268L282.975 151.079C282.795 149.785 283.698 148.59 284.992 148.41L306.181 145.463C307.475 145.283 308.67 146.186 308.85 147.48L311.797 168.669C311.979 169.962 311.075 171.157 309.781 171.337Z" fill="#F0C66C"/>
<path d="M300.011 215.108L270.922 219.154C269.628 219.334 268.433 218.431 268.253 217.137L264.207 188.048C264.027 186.754 264.93 185.559 266.224 185.379L295.313 181.333C296.607 181.153 297.802 182.056 297.982 183.35L302.028 212.439C302.208 213.732 301.305 214.927 300.011 215.108Z" fill="#F0C66C"/>
<path d="M288.322 254.716L268.172 250.488C266.893 250.22 266.074 248.965 266.343 247.687L270.571 227.537C270.839 226.258 272.093 225.439 273.372 225.707L293.522 229.935C294.801 230.203 295.62 231.457 295.352 232.736L291.124 252.886C290.855 254.165 289.601 254.984 288.322 254.716Z" fill="#E69724"/>
<path d="M281.992 212.671C282.861 212.55 283.467 211.748 283.347 210.879L280.53 190.631C280.409 189.762 279.607 189.156 278.738 189.277C277.869 189.398 277.263 190.2 277.383 191.069L280.2 211.317C280.321 212.185 281.123 212.792 281.992 212.671Z" fill="white"/>
<path d="M276.261 213.468C277.13 213.347 277.737 212.545 277.616 211.676L275.494 196.419C275.373 195.55 274.571 194.944 273.702 195.064C272.833 195.185 272.227 195.987 272.347 196.856L274.469 212.113C274.59 212.983 275.392 213.589 276.261 213.468Z" fill="white"/>
<path d="M292.847 211.161C293.716 211.04 294.322 210.238 294.202 209.369L291.753 191.763C291.632 190.894 290.83 190.288 289.961 190.408C289.092 190.529 288.486 191.331 288.606 192.2L291.055 209.806C291.176 210.676 291.978 211.282 292.847 211.161Z" fill="white"/>
<path d="M287.42 211.916C288.289 211.795 288.895 210.993 288.774 210.124L287.165 198.554C287.044 197.685 286.242 197.079 285.373 197.199C284.504 197.32 283.898 198.122 284.018 198.991L285.627 210.561C285.748 211.431 286.551 212.037 287.42 211.916Z" fill="white"/>
<path d="M211.574 175.042L189.649 178.092C188.355 178.272 187.16 177.369 186.98 176.075L183.93 154.15C183.75 152.856 184.653 151.661 185.947 151.481L207.872 148.431C209.166 148.251 210.361 149.154 210.541 150.448L213.591 172.373C213.772 173.667 212.868 174.862 211.574 175.042Z" fill="#F0C66C"/>
<path d="M211.465 196.196L205.816 190.589C205.215 189.993 205.124 189.008 205.689 188.377C206.292 187.703 207.327 187.678 207.96 188.307L212.449 192.762L221.766 181.786C222.344 181.105 223.377 181.042 224.035 181.662C224.651 182.243 224.645 183.232 224.097 183.878L213.723 196.1C213.141 196.783 212.101 196.827 211.465 196.196Z" fill="white"/>
<path d="M133.016 236.588L127.083 230.7C126.452 230.074 126.356 229.04 126.949 228.377C127.582 227.67 128.669 227.643 129.334 228.304L134.048 232.983L143.832 221.456C144.439 220.741 145.524 220.674 146.215 221.325C146.862 221.935 146.855 222.974 146.279 223.652L135.384 236.487C134.776 237.205 133.684 237.251 133.016 236.588Z" fill="white"/>
<path d="M66.3858 150.379L71.3047 155.133L76.0588 150.214C76.5418 149.714 77.3388 149.701 77.8388 150.184C78.3388 150.667 78.3518 151.464 77.8688 151.964L73.1148 156.883L78.0337 161.637C78.5337 162.12 78.5467 162.917 78.0637 163.417C77.5807 163.917 76.7837 163.93 76.2837 163.447L71.3648 158.693L66.6107 163.612C66.1277 164.112 65.3307 164.125 64.8307 163.642C64.3307 163.159 64.3167 162.362 64.8007 161.862L69.5547 156.943L64.6358 152.189C64.1358 151.706 64.1228 150.909 64.6058 150.409C65.0898 149.909 65.8858 149.895 66.3858 150.379Z" fill="white"/>
<path d="M291.486 155.03L297.152 158.863L300.985 153.197C301.375 152.621 302.157 152.47 302.733 152.86C303.309 153.25 303.46 154.032 303.07 154.608L299.237 160.274L304.903 164.107C305.479 164.496 305.63 165.279 305.24 165.855C304.85 166.431 304.068 166.582 303.492 166.192L297.826 162.359L293.993 168.025C293.604 168.601 292.821 168.752 292.245 168.362C291.669 167.972 291.518 167.19 291.908 166.614L295.741 160.948L290.075 157.115C289.499 156.725 289.348 155.943 289.738 155.367C290.128 154.791 290.91 154.64 291.486 155.03Z" fill="white"/>
<path d="M103.617 102.413V253.233" stroke="#E1ECFA" stroke-miterlimit="10" stroke-linecap="round"/>
<path d="M96.8306 312.131L96.6346 318.459L88.4746 318.418L88.5056 312.09L96.8306 312.131Z" fill="#F3D6C1"/>
<path d="M88.4744 318.418L96.4554 318.458C96.5774 318.459 96.6914 318.472 96.8094 318.5C97.9484 318.773 104.435 320.409 110.147 323.568C111.567 324.353 110.985 326.524 109.362 326.516L90.0084 326.42C89.1384 326.416 88.4364 325.707 88.4414 324.837L88.4744 318.418Z" fill="#2F526E"/>
<path d="M53.7818 306.57L49.8568 312.137L43.0918 307.574L46.6298 302.327L53.7818 306.57Z" fill="#F3D6C1"/>
<path d="M43.0916 307.574L49.7086 312.037C49.8096 312.105 49.8976 312.18 49.9796 312.269C50.7756 313.128 55.2636 318.089 58.2616 323.888C59.0066 325.33 57.3176 326.812 55.9726 325.905L39.9276 315.083C39.2066 314.597 39.0166 313.618 39.5026 312.896L43.0916 307.574Z" fill="#315780"/>
<path d="M67.2758 234.202C65.9338 234.017 64.7168 235.005 64.6328 236.358C64.1678 243.832 62.5608 265.871 59.4338 272.184L44.6848 299.091C44.0898 300.176 44.4468 301.536 45.4978 302.189L54.3718 307.704C55.4508 308.375 56.8688 308.056 57.5588 306.989L74.9978 279.96C75.1598 279.708 75.2728 279.428 75.3288 279.134L83.0228 238.85C83.2728 237.54 82.3748 236.288 81.0538 236.106L67.2758 234.202Z" fill="#F0C66C"/>
<path d="M92.162 235.342L99.885 310.903C100.044 312.461 98.822 313.815 97.255 313.815H87.43C86.073 313.815 84.937 312.788 84.8 311.438L79.265 256.726C79.256 256.637 79.251 256.549 79.251 256.46V234.797C79.251 233.226 80.612 232.002 82.174 232.169L89.811 232.982C91.055 233.115 92.035 234.099 92.162 235.342Z" fill="#F0C66C"/>
<path d="M79.3838 257.901L81.5758 237.269" stroke="#E69724" stroke-width="0.5" stroke-miterlimit="10" stroke-linecap="round"/>
<path d="M80.3496 248.81L82.9816 247.993C83.7656 247.75 84.3006 247.024 84.3006 246.203V236.859" stroke="#E69724" stroke-width="0.5" stroke-miterlimit="10" stroke-linecap="round"/>
<path d="M47.4395 299.783L54.8634 304.547" stroke="#E69724" stroke-width="0.5" stroke-miterlimit="10" stroke-linecap="round"/>
<path d="M88.4746 310.529H97.2986" stroke="#E69724" stroke-width="0.5" stroke-miterlimit="10" stroke-linecap="round"/>
<path d="M67.2519 239.25L64.5949 269.781L48.8389 297.778" stroke="#E69724" stroke-width="0.5" stroke-miterlimit="10" stroke-linecap="round"/>
<path d="M82.3242 253.944L87.6502 307.573" stroke="#E69724" stroke-width="0.5" stroke-miterlimit="10" stroke-linecap="round"/>
<path d="M97.2744 188.703L104.156 188.819L114.219 168.092C114.219 168.092 111.216 166.099 110.425 163.656C109.633 161.213 110.087 160.46 110.736 160.598C111.385 160.736 112.716 163.474 113.958 163.49C115.2 163.506 115.342 162.728 114.936 159.074C114.53 155.42 114.318 153.751 115.263 153.225C116.208 152.699 117.201 154.916 117.201 154.916C117.201 154.916 117.828 154.055 118.705 154.132C119.583 154.208 119.752 155.206 119.752 155.206C119.752 155.206 120.198 154.714 121.188 154.922C122.178 155.13 122.247 156.333 122.247 156.333C122.247 156.333 123.199 155.226 124.107 156.994C125.015 158.763 127.094 164.931 120.567 170.002C120.567 170.002 113.939 199.289 111.223 200.647C108.506 202.005 99.3464 203.33 99.3464 203.33L97.2744 188.703Z" fill="#E8BFA5"/>
<path d="M83.8691 189.023L99.1871 188.158C99.8061 188.123 100.343 188.574 100.41 189.191C100.633 191.246 101.063 195.747 100.935 198.811C100.911 199.376 100.486 199.837 99.9261 199.913L99.0571 200.031C98.6231 200.09 98.3131 200.009 98.0671 199.821L83.8691 189.023Z" fill="#2E506E"/>
<path d="M88.5973 157.725C88.5973 157.725 88.8323 160.311 91.5953 165.803C94.4163 171.411 93.5123 179.722 89.1623 181.349C85.7763 182.616 83.3513 181.875 83.3513 181.875L80.9223 193.77L70.4203 190.665L71.9433 178.96L69.7783 161.971L88.5973 157.725Z" fill="#F3D6C1"/>
<path d="M71.5089 180.339L74.7379 176.816C75.1149 176.405 75.0399 175.762 74.5809 175.445C73.4639 174.674 71.7389 173.137 71.9609 171.113C72.2859 168.147 75.5969 167.213 77.8399 169.847C77.8399 169.847 78.2579 171.515 79.4179 165.27C80.5779 159.025 85.5969 164.007 88.2819 161.565C90.9669 159.123 92.7219 157.748 92.3739 155.26C92.0259 152.772 90.6919 149.156 87.3749 151.044C84.0579 152.932 84.1389 148.775 80.5519 150.297C76.0849 152.192 71.6869 147.286 70.8049 152.567C69.9229 157.848 63.9919 153.773 65.3739 158.196C66.7559 162.619 59.9919 162.116 61.3699 165.27C62.7479 168.424 60.3589 172.067 63.1229 173.755C65.8869 175.443 68.2329 174.142 68.2329 178.15C68.2339 180.488 71.5089 180.339 71.5089 180.339Z" fill="#2F5482"/>
<path d="M138.968 174.849L111.008 178.738C109.714 178.918 108.519 178.015 108.339 176.721L104.45 148.761C104.27 147.467 105.173 146.272 106.467 146.092L134.427 142.203C135.721 142.023 136.916 142.926 137.096 144.22L140.985 172.18C141.165 173.474 140.262 174.669 138.968 174.849Z" fill="#E69724"/>
<path d="M115.116 170.081L132.651 167.642C133.42 167.535 133.956 166.825 133.849 166.057C133.742 165.288 133.032 164.752 132.264 164.859L114.73 167.298C113.961 167.405 113.425 168.115 113.532 168.884C113.638 169.651 114.347 170.188 115.116 170.081Z" fill="white"/>
<path d="M98.0384 197.104L104.636 199.062L119.89 181.795C119.89 181.795 117.532 179.069 117.425 176.504C117.318 173.938 117.957 173.335 118.545 173.642C119.134 173.949 119.681 176.944 120.873 177.293C122.065 177.642 122.41 176.93 123 173.3C123.589 169.671 123.833 168.008 124.885 167.755C125.937 167.502 126.298 169.903 126.298 169.903C126.298 169.903 127.133 169.243 127.958 169.552C128.783 169.861 128.678 170.868 128.678 170.868C128.678 170.868 129.239 170.513 130.138 170.979C131.036 171.445 130.78 172.622 130.78 172.622C130.78 172.622 131.994 171.811 132.395 173.758C132.796 175.706 133.143 182.205 125.495 185.339C125.495 185.339 111.253 211.774 108.271 212.353C105.29 212.932 96.1094 211.751 96.1094 211.751L98.0384 197.104Z" fill="#F3D6C1"/>
<path d="M65.1721 237.268C64.2221 237.268 63.4531 236.506 63.4531 235.557C63.4551 228.646 63.5231 202.773 64.4051 194.511C65.5271 183.996 74.5831 184.265 87.1701 190.506L98.7411 196.243C99.3591 196.55 99.7351 197.19 99.6941 197.879C99.5251 200.692 98.9991 208.035 97.9451 211.742C97.6931 212.627 96.7961 213.157 95.8991 212.947C94.4901 212.618 92.5641 212.167 92.5641 212.167L93.1891 235.503C93.2151 236.47 92.4381 237.268 91.4711 237.268H65.1721Z" fill="#315780"/>
<path d="M92.5641 212.167C92.5641 212.167 75.1851 205.7 75.6041 197.438" stroke="#2E506E" stroke-width="0.5" stroke-miterlimit="10" stroke-linecap="round"/>
<path d="M85.2272 189.579C85.2272 189.579 77.3552 187.17 76.2432 194.105" stroke="#2E506E" stroke-width="0.5" stroke-miterlimit="10" stroke-linecap="round"/>
<path d="M97.2741 197.438L95.5771 210.397" stroke="#2E506E" stroke-width="0.5" stroke-miterlimit="10" stroke-linecap="round"/>
<path d="M94.9588 204.803L94.2178 210.398" stroke="#2E506E" stroke-width="0.5" stroke-miterlimit="10" stroke-linecap="round"/>
<path d="M90.0939 234.202H67.252" stroke="#2E506E" stroke-width="0.5" stroke-miterlimit="10" stroke-linecap="round"/>
<path d="M113.17 156.08L130.704 153.641C131.473 153.534 132.009 152.824 131.902 152.055C131.795 151.286 131.085 150.75 130.317 150.857L112.782 153.296C112.013 153.403 111.477 154.113 111.584 154.881C111.691 155.651 112.401 156.187 113.17 156.08Z" fill="white"/>
<path d="M114.092 162.716L131.627 160.277C132.396 160.17 132.932 159.46 132.825 158.692C132.718 157.923 132.008 157.387 131.24 157.494L113.706 159.933C112.937 160.04 112.401 160.75 112.508 161.519C112.614 162.287 113.324 162.823 114.092 162.716Z" fill="white"/>
<path d="M278.023 251.016L279.647 265.326L267.12 271.925L257.054 260.361L261.181 250.112L278.023 251.016Z" fill="#E6AE90"/>
<path d="M244.856 274.486L241.217 295.628L249.275 299.464L255.165 274.486H244.856Z" fill="#F3D6C1"/>
<path d="M295.607 275.21L298.421 292.449L292.108 299.388L283.705 273.798L295.607 275.21Z" fill="#F3D6C1"/>
<path d="M277.044 257.959C277.044 257.959 291.967 254.123 294.269 265.175L296.196 274.431C296.285 274.857 295.937 275.246 295.504 275.199C293.677 275 289.508 274.769 288.038 276.56L292.107 299.388L284.958 308.56L247.477 304.378L253.129 278.272C253.129 278.272 248.625 275.699 244.862 275.907C243.996 275.955 243.307 275.212 243.449 274.356C244.312 269.134 247.943 255.033 261.619 259.79C261.619 259.79 262.214 269.146 270.254 268.057C278.524 266.936 277.044 257.959 277.044 257.959Z" fill="#F0C66C"/>
<path d="M252.562 307.681C252.562 307.681 258.378 304.647 265.457 304.773C272.537 304.899 277.088 307.049 282.272 304.014C287.455 300.98 292.446 297.369 295.607 295.093C298.768 292.817 303.385 289.728 308.062 293.141C312.74 296.554 310.212 309.956 302.121 312.863C294.03 315.771 279.744 321.081 269.124 320.322C258.504 319.565 252.562 307.681 252.562 307.681Z" fill="#2E506E"/>
<path d="M276.204 316.025L282.933 318.876C282.933 318.876 283.157 322.852 283.537 324.242C283.916 325.633 283.537 326.518 283.537 326.518C283.537 326.518 273.366 326.201 270.423 322.503L276.204 316.025Z" fill="#F3D6C1"/>
<path d="M283.537 326.52C283.537 326.52 301.742 326.52 305.914 322.854C310.086 319.188 308.695 315.521 302.121 312.866C302.121 312.866 289.382 317.711 282.933 318.878L283.537 326.52Z" fill="#E69724"/>
<path d="M247.884 313.497C247.884 313.497 240.046 308.819 237.138 315.773C234.23 322.726 244.976 326.014 252.562 325.381C260.148 324.749 266.595 321.968 266.595 321.968L247.884 313.497Z" fill="#E69724"/>
<path d="M278.022 242.885C278.022 242.885 279.197 254.138 274.008 259.326C272.187 261.147 269.395 261.604 267.007 260.639C263.445 259.199 258.655 255.062 259.442 243.192L266.422 233.235C266.422 233.235 277.098 243.295 278.022 242.885Z" fill="#F3D6C1"/>
<path d="M276.204 316.025C276.204 316.025 255.218 303.703 250.54 299.91C245.862 296.117 236.633 289.641 231.197 294.868C225.761 300.095 229.739 306.604 235.116 309.45C240.286 312.187 255.264 320.295 267.422 323.838C268.307 324.096 269.26 323.806 269.874 323.118L276.204 316.025Z" fill="#315780"/>
<path d="M267.283 236.92C268.727 238.959 272.007 243.143 275.069 243.898C275.67 244.046 276.077 244.602 276.086 245.221C276.155 249.653 276.562 264.97 278.904 268.606C281.65 272.869 286.918 268.868 290.186 266.034C293.454 263.201 284.711 247.369 284.711 240.566C284.711 233.763 278.24 223.56 267.954 224.638C257.667 225.716 255.428 232.934 254.349 240.898C253.271 248.862 248.293 249.028 248.21 256.245C248.127 263.462 247.292 266.368 251.026 268.524C254.759 270.681 259.99 272.172 260.986 266.697C261.981 261.222 262.479 257.157 261.318 251.516C260.399 247.053 264.194 239.817 265.82 236.989C266.137 236.437 266.915 236.4 267.283 236.92Z" fill="#2E506E"/>
<path d="M292.106 276.821L291.47 297.713C291.433 298.937 290.43 299.91 289.205 299.91H250.539C249.322 299.91 248.322 298.948 248.275 297.732L247.48 277.19C247.431 275.913 248.447 274.847 249.725 274.836L289.822 274.487C291.108 274.475 292.145 275.536 292.106 276.821Z" fill="#E69724"/>
<path d="M266.818 287.79C266.818 290.024 268.629 291.835 270.863 291.835C273.097 291.835 274.908 290.024 274.908 287.79C274.908 285.556 273.097 283.745 270.863 283.745C268.629 283.745 266.818 285.556 266.818 287.79Z" fill="#F0C66C"/>
<path d="M18.8477 325.977H350.672" stroke="#315782" stroke-miterlimit="10" stroke-linecap="round"/>
<path d="M287.986 58.0334L274.544 69.1554C273.025 70.4124 270.726 69.8634 269.937 68.0574L252.858 28.9214L287.986 58.0334Z" fill="#BAD4EF"/>
<path d="M292.769 54.3284L252.858 28.9214L303.82 44.5314C304.86 44.8504 305.059 46.2364 304.15 46.8344L292.769 54.3284Z" fill="#BAD4EF"/>
<path d="M287.986 58.0334L292.081 67.4574L292.769 54.3284L252.859 28.9214L287.986 58.0334Z" fill="#315782"/>
<path d="M284.443 60.9662L292.081 67.4572L287.986 58.0332L284.443 60.9662Z" fill="#2E506E"/>
<path d="M297.388 69.3193C297.388 69.3193 298.222 69.7423 299.634 70.4123" stroke="#315782" stroke-miterlimit="10" stroke-linecap="round"/>
<path d="M304.232 72.5103C313.12 76.4033 327.939 81.9554 331.671 77.5744C337.096 71.2064 325.609 64.3644 323.528 71.5634C321.447 78.7624 354.601 79.3283 346.246 94.3603C341.801 102.358 330.915 83.3873 348.841 87.9293C359.245 90.5653 357.716 106.056 351.567 115.037C349.34 118.29 346.074 120.181 343.368 121.259" stroke="#315782" stroke-miterlimit="10" stroke-linecap="round" stroke-dasharray="5.06 5.06"/>
<path d="M340.974 122.069C339.511 122.479 338.535 122.6 338.535 122.6" stroke="#315782" stroke-miterlimit="10" stroke-linecap="round"/>
</svg>
